<mxfile host="app.diagrams.net" modified="2023-04-05T15:19:06.864Z" agent="Mozilla/5.0 (Windows NT 10.0; Win64; x64) AppleWebKit/537.36 (KHTML, like Gecko) Chrome/111.0.0.0 Safari/537.36" etag="GOIKk8NPC5BXOSZclUiQ" version="21.1.4" type="device">
  <diagram name="Page-1" id="b5b7bab2-c9e2-2cf4-8b2a-24fd1a2a6d21">
    <mxGraphModel dx="1000" dy="515" grid="1" gridSize="10" guides="1" tooltips="1" connect="1" arrows="1" fold="1" page="1" pageScale="1" pageWidth="827" pageHeight="1169" background="none" math="0" shadow="0">
      <root>
        <mxCell id="0" />
        <mxCell id="1" parent="0" />
        <mxCell id="6e0c8c40b5770093-18" value="" style="group" parent="1" vertex="1" connectable="0">
          <mxGeometry x="660" y="295" width="940" height="580" as="geometry" />
        </mxCell>
        <mxCell id="6e0c8c40b5770093-11" value="" style="shape=folder;fontStyle=1;spacingTop=10;tabWidth=123;tabHeight=24;tabPosition=left;html=1;rounded=0;shadow=0;comic=0;labelBackgroundColor=none;strokeWidth=1;fontFamily=Verdana;fontSize=10;align=center;" parent="6e0c8c40b5770093-18" vertex="1">
          <mxGeometry y="-15" width="930" height="505.17999999999995" as="geometry" />
        </mxCell>
        <mxCell id="RNrhVG8ULD7N9WZrLRh7-1" value="&lt;p style=&quot;margin:0px;margin-top:4px;text-align:center;&quot;&gt;&lt;b&gt;Usuario&amp;nbsp;&lt;/b&gt;&lt;/p&gt;&lt;hr size=&quot;1&quot;&gt;&lt;p style=&quot;margin:0px;margin-left:4px;&quot;&gt;- Usuario(data: UsuarioRequestDTO)&lt;/p&gt;&lt;hr size=&quot;1&quot;&gt;&lt;p style=&quot;margin:0px;margin-left:4px;&quot;&gt;+ buscaremail ( Email email)&amp;nbsp;&lt;/p&gt;&lt;p style=&quot;margin:0px;margin-left:4px;&quot;&gt;+ buscarsenha (Senha senha)&lt;/p&gt;&lt;p style=&quot;margin:0px;margin-left:4px;&quot;&gt;+ acesso (Tipoacesso acesso)&lt;/p&gt;" style="verticalAlign=top;align=left;overflow=fill;fontSize=12;fontFamily=Helvetica;html=1;whiteSpace=wrap;" vertex="1" parent="6e0c8c40b5770093-18">
          <mxGeometry x="20" y="50" width="300.03" height="130" as="geometry" />
        </mxCell>
        <mxCell id="RNrhVG8ULD7N9WZrLRh7-12" style="edgeStyle=orthogonalEdgeStyle;rounded=0;orthogonalLoop=1;jettySize=auto;html=1;exitX=0.25;exitY=0;exitDx=0;exitDy=0;entryX=1;entryY=0.5;entryDx=0;entryDy=0;startArrow=classic;startFill=1;" edge="1" parent="6e0c8c40b5770093-18" source="RNrhVG8ULD7N9WZrLRh7-8" target="RNrhVG8ULD7N9WZrLRh7-1">
          <mxGeometry relative="1" as="geometry" />
        </mxCell>
        <mxCell id="RNrhVG8ULD7N9WZrLRh7-8" value="TipoAcesso" style="swimlane;fontStyle=1;align=center;verticalAlign=top;childLayout=stackLayout;horizontal=1;startSize=30;horizontalStack=0;resizeParent=1;resizeParentMax=0;resizeLast=0;collapsible=1;marginBottom=0;whiteSpace=wrap;html=1;" vertex="1" parent="6e0c8c40b5770093-18">
          <mxGeometry x="290" y="320" width="217.53" height="150" as="geometry">
            <mxRectangle x="380" y="150" width="100" height="30" as="alternateBounds" />
          </mxGeometry>
        </mxCell>
        <mxCell id="RNrhVG8ULD7N9WZrLRh7-9" value="- Vendedor: String&lt;br&gt;- Administrador: String" style="text;strokeColor=none;fillColor=none;align=left;verticalAlign=top;spacingLeft=4;spacingRight=4;overflow=hidden;rotatable=0;points=[[0,0.5],[1,0.5]];portConstraint=eastwest;whiteSpace=wrap;html=1;" vertex="1" parent="RNrhVG8ULD7N9WZrLRh7-8">
          <mxGeometry y="30" width="217.53" height="40" as="geometry" />
        </mxCell>
        <mxCell id="RNrhVG8ULD7N9WZrLRh7-10" value="" style="line;strokeWidth=1;fillColor=none;align=left;verticalAlign=middle;spacingTop=-1;spacingLeft=3;spacingRight=3;rotatable=0;labelPosition=right;points=[];portConstraint=eastwest;strokeColor=inherit;" vertex="1" parent="RNrhVG8ULD7N9WZrLRh7-8">
          <mxGeometry y="70" width="217.53" height="9.28" as="geometry" />
        </mxCell>
        <mxCell id="RNrhVG8ULD7N9WZrLRh7-11" value="&lt;p style=&quot;border-color: var(--border-color); margin: 0px 0px 0px 4px;&quot;&gt;+getEmail(): String&lt;/p&gt;&lt;p style=&quot;border-color: var(--border-color); margin: 0px 0px 0px 4px;&quot;&gt;+setEmail(String novoEmail)&lt;/p&gt;&lt;p style=&quot;border-color: var(--border-color); margin: 0px 0px 0px 4px;&quot;&gt;+getSenha(): String&lt;/p&gt;+setSenha(String novoSenha)" style="text;strokeColor=none;fillColor=none;align=left;verticalAlign=top;spacingLeft=4;spacingRight=4;overflow=hidden;rotatable=0;points=[[0,0.5],[1,0.5]];portConstraint=eastwest;whiteSpace=wrap;html=1;" vertex="1" parent="RNrhVG8ULD7N9WZrLRh7-8">
          <mxGeometry y="79.28" width="217.53" height="70.72" as="geometry" />
        </mxCell>
        <mxCell id="RNrhVG8ULD7N9WZrLRh7-13" style="edgeStyle=orthogonalEdgeStyle;rounded=0;orthogonalLoop=1;jettySize=auto;html=1;exitX=0.25;exitY=0;exitDx=0;exitDy=0;startArrow=classic;startFill=1;" edge="1" parent="6e0c8c40b5770093-18" source="RNrhVG8ULD7N9WZrLRh7-6" target="RNrhVG8ULD7N9WZrLRh7-1">
          <mxGeometry relative="1" as="geometry" />
        </mxCell>
        <mxCell id="RNrhVG8ULD7N9WZrLRh7-6" value="&lt;p style=&quot;margin:0px;margin-top:4px;text-align:center;&quot;&gt;&lt;b&gt;UsuarioRequesrDTO&lt;/b&gt;&lt;/p&gt;&lt;hr size=&quot;1&quot;&gt;&lt;p style=&quot;margin:0px;margin-left:4px;&quot;&gt;- email: String&amp;nbsp;&lt;/p&gt;&lt;p style=&quot;margin:0px;margin-left:4px;&quot;&gt;- senha: String&lt;/p&gt;&lt;p style=&quot;margin:0px;margin-left:4px;&quot;&gt;&lt;span style=&quot;background-color: initial;&quot;&gt;- acesso: String&lt;/span&gt;&lt;/p&gt;&lt;hr size=&quot;1&quot;&gt;&lt;p style=&quot;margin:0px;margin-left:4px;&quot;&gt;+getEmail(): String&lt;/p&gt;&lt;p style=&quot;margin:0px;margin-left:4px;&quot;&gt;+setEmail(String novoEmail)&lt;/p&gt;&lt;p style=&quot;margin:0px;margin-left:4px;&quot;&gt;+getSenha(): String&lt;/p&gt;&lt;p style=&quot;margin:0px;margin-left:4px;&quot;&gt;+setSenha(String novoSenha)&lt;/p&gt;&lt;p style=&quot;margin:0px;margin-left:4px;&quot;&gt;&lt;br&gt;&lt;/p&gt;" style="verticalAlign=top;align=left;overflow=fill;fontSize=12;fontFamily=Helvetica;html=1;whiteSpace=wrap;" vertex="1" parent="6e0c8c40b5770093-18">
          <mxGeometry x="40" y="320" width="220" height="155" as="geometry" />
        </mxCell>
        <mxCell id="RNrhVG8ULD7N9WZrLRh7-14" value="CadastrarProduto" style="swimlane;fontStyle=1;align=center;verticalAlign=top;childLayout=stackLayout;horizontal=1;startSize=26;horizontalStack=0;resizeParent=1;resizeParentMax=0;resizeLast=0;collapsible=1;marginBottom=0;whiteSpace=wrap;html=1;" vertex="1" parent="6e0c8c40b5770093-18">
          <mxGeometry x="600" y="40" width="280" height="140" as="geometry" />
        </mxCell>
        <mxCell id="RNrhVG8ULD7N9WZrLRh7-15" value="- Cliente(data: ClienteRequestDto)" style="text;strokeColor=none;fillColor=none;align=left;verticalAlign=top;spacingLeft=4;spacingRight=4;overflow=hidden;rotatable=0;points=[[0,0.5],[1,0.5]];portConstraint=eastwest;whiteSpace=wrap;html=1;" vertex="1" parent="RNrhVG8ULD7N9WZrLRh7-14">
          <mxGeometry y="26" width="280" height="26" as="geometry" />
        </mxCell>
        <mxCell id="RNrhVG8ULD7N9WZrLRh7-16" value="" style="line;strokeWidth=1;fillColor=none;align=left;verticalAlign=middle;spacingTop=-1;spacingLeft=3;spacingRight=3;rotatable=0;labelPosition=right;points=[];portConstraint=eastwest;strokeColor=inherit;" vertex="1" parent="RNrhVG8ULD7N9WZrLRh7-14">
          <mxGeometry y="52" width="280" height="8" as="geometry" />
        </mxCell>
        <mxCell id="RNrhVG8ULD7N9WZrLRh7-17" value="+ cod_cliente(Cod_cliente cod_cliente)&lt;br&gt;+nome_cliente(Nome_cliente nome_cliente)&lt;br&gt;+nome_gerencia(Nome_gerencia nome_gerencia)" style="text;strokeColor=none;fillColor=none;align=left;verticalAlign=top;spacingLeft=4;spacingRight=4;overflow=hidden;rotatable=0;points=[[0,0.5],[1,0.5]];portConstraint=eastwest;whiteSpace=wrap;html=1;" vertex="1" parent="RNrhVG8ULD7N9WZrLRh7-14">
          <mxGeometry y="60" width="280" height="80" as="geometry" />
        </mxCell>
        <mxCell id="RNrhVG8ULD7N9WZrLRh7-22" style="edgeStyle=orthogonalEdgeStyle;rounded=0;orthogonalLoop=1;jettySize=auto;html=1;exitX=0.25;exitY=0;exitDx=0;exitDy=0;entryX=0.506;entryY=0.989;entryDx=0;entryDy=0;entryPerimeter=0;startArrow=classic;startFill=1;" edge="1" parent="6e0c8c40b5770093-18" source="RNrhVG8ULD7N9WZrLRh7-18" target="RNrhVG8ULD7N9WZrLRh7-17">
          <mxGeometry relative="1" as="geometry" />
        </mxCell>
        <mxCell id="RNrhVG8ULD7N9WZrLRh7-18" value="Produto" style="swimlane;fontStyle=1;align=center;verticalAlign=top;childLayout=stackLayout;horizontal=1;startSize=26;horizontalStack=0;resizeParent=1;resizeParentMax=0;resizeLast=0;collapsible=1;marginBottom=0;whiteSpace=wrap;html=1;" vertex="1" parent="6e0c8c40b5770093-18">
          <mxGeometry x="610" y="275" width="300" height="150" as="geometry" />
        </mxCell>
        <mxCell id="RNrhVG8ULD7N9WZrLRh7-19" value="-&amp;nbsp;nome_cliente: String&lt;br&gt;-nome_gerencia: String" style="text;strokeColor=none;fillColor=none;align=left;verticalAlign=top;spacingLeft=4;spacingRight=4;overflow=hidden;rotatable=0;points=[[0,0.5],[1,0.5]];portConstraint=eastwest;whiteSpace=wrap;html=1;" vertex="1" parent="RNrhVG8ULD7N9WZrLRh7-18">
          <mxGeometry y="26" width="300" height="44" as="geometry" />
        </mxCell>
        <mxCell id="RNrhVG8ULD7N9WZrLRh7-20" value="" style="line;strokeWidth=1;fillColor=none;align=left;verticalAlign=middle;spacingTop=-1;spacingLeft=3;spacingRight=3;rotatable=0;labelPosition=right;points=[];portConstraint=eastwest;strokeColor=inherit;" vertex="1" parent="RNrhVG8ULD7N9WZrLRh7-18">
          <mxGeometry y="70" width="300" height="8" as="geometry" />
        </mxCell>
        <mxCell id="RNrhVG8ULD7N9WZrLRh7-21" value="+ getNome_cliente(): String&lt;br&gt;+setNome_cliente(Nome_cliente nome_cliente)&lt;br&gt;+ getNome_gerencia(): String&lt;br&gt;+ setNome_gerencia(Nome_gerencia nome_gerencia)" style="text;strokeColor=none;fillColor=none;align=left;verticalAlign=top;spacingLeft=4;spacingRight=4;overflow=hidden;rotatable=0;points=[[0,0.5],[1,0.5]];portConstraint=eastwest;whiteSpace=wrap;html=1;" vertex="1" parent="RNrhVG8ULD7N9WZrLRh7-18">
          <mxGeometry y="78" width="300" height="72" as="geometry" />
        </mxCell>
        <mxCell id="6e0c8c40b5770093-73" value="&amp;lt;&amp;lt;model&amp;gt;&amp;gt;" style="text;html=1;align=left;verticalAlign=top;spacingTop=-4;fontSize=10;fontFamily=Verdana" parent="1" vertex="1">
          <mxGeometry x="327.5" y="114.5" width="130" height="20" as="geometry" />
        </mxCell>
      </root>
    </mxGraphModel>
  </diagram>
</mxfile>
